# xmcd
# Track frame offsets:
# 150
# 12929
# 31080
# 47372
# 63637
# 79065
# 98658
# 110193
# 123631
# 136447
# 148654
# 166621
# 181130
# 203258
# 220786
# 236984
# 248376
# 260166
# 275110
# 295630
# 315868
# 330689
# 343053
#
# Disc length: 4785 seconds
# Revision: 0
# Processed by: cddbd v1.5.2PL0 Copyright (c) Steve Scherf et al.
# Submitted via: VisiTrax 2.11.2.271 - For more info visit www.synapsa.com
#
DISCID=4912af17
DTITLE=Various Artist - 101 Country Classics [CD4)
DYEAR=2011
DGENRE=
TTITLE0=Leann Rimes - Blue
TTITLE1=Lonestar - Amazed
TTITLE2=Gretchen Wilson - Redneck Woman (Album Version)
TTITLE3=The Charlie Daniels Band - The Devil Went Down To Georgia
TTITLE4=Juice Newton - Queen Of Hearts
TTITLE5=Kenny Rogers - Coward Of The County
TTITLE6=Crystal Gayle - Never Ending Song Of Love
TTITLE7=Mel Mcdaniel - Babys Got Her Blue Jeans On
TTITLE8=Tanya Tucker - Would You Lay With Me (In A Field Of Stone)
TTITLE9=Charlie Rich - The Most Beautiful Girl
TTITLE10=Dottie West - Hey, Mr. Dream Maker
TTITLE11=Don Williams - Another Place, Another Time
TTITLE12=Deana Carter - Strawberry Wine
TTITLE13=Dan Seals and Marie Osmond - Meet Me In Montana
TTITLE14=Linda Davis - Just Enough Rope
TTITLE15=Chris Ledoux - Under This Old Hat
TTITLE16=Lacy J. Dalton - Love Hurts
TTITLE17=Asleep At The Wheel - Lay Down Sally
TTITLE18=Suzy Bogguss - Take It To The Limit
TTITLE19=Steve Wariner - Two Teardrops
TTITLE20=Shelby Lynne - Lonesome
TTITLE21=Dr. Hook - Only Sixteen
TTITLE22=The Band - The Night They Drove Old Dixie Down
EXTD=
EXTT0=
EXTT1=
EXTT2=
EXTT3=
EXTT4=
EXTT5=
EXTT6=
EXTT7=
EXTT8=
EXTT9=
EXTT10=
EXTT11=
EXTT12=
EXTT13=
EXTT14=
EXTT15=
EXTT16=
EXTT17=
EXTT18=
EXTT19=
EXTT20=
EXTT21=
EXTT22=
PLAYORDER=
